<svg width="19" height="22" viewBox="0 0 19 22" fill="none" xmlns="http://www.w3.org/2000/svg">
<path d="M18.1784 21.9993C18.006 21.9993 17.8357 21.9448 17.6929 21.8421L9.5011 15.916L1.30928 21.8443C1.05885 22.0234 0.727136 22.0517 0.450341 21.9098C0.175743 21.7712 0 21.4895 0 21.1816V2.4565C0 1.1027 1.10938 0 2.47138 0H16.5286C17.8906 0 19 1.1027 19 2.4565V21.1805C19 21.4884 18.8265 21.7701 18.5497 21.9098C18.4332 21.9699 18.3047 21.9993 18.1762 21.9993H18.1784ZM9.5011 14.0839C9.67135 14.0839 9.8416 14.1364 9.98439 14.2412L17.3546 19.5723V2.4565C17.3546 2.00669 16.9844 1.63767 16.5308 1.63767H2.47138C2.01775 1.63767 1.64759 2.00669 1.64759 2.4565V19.5723L9.01781 14.2412C9.1606 14.1364 9.33085 14.0839 9.5011 14.0839Z" fill="white"/>
</svg>
