<svg width="23" height="22" viewBox="0 0 23 22" fill="none" xmlns="http://www.w3.org/2000/svg">
<path d="M22.1154 5.7384H17.48L17.9188 0.918478C17.9612 0.453635 17.6003 0.0440769 17.1144 0.00233133C16.6225 -0.0315164 16.1991 0.306961 16.1566 0.772932L15.7049 5.73727H8.25051L8.68692 0.919606C8.73056 0.453635 8.36846 0.0440769 7.88487 0.00233133C7.38949 -0.0315164 6.96841 0.306961 6.92595 0.772932L6.47538 5.73727H1.80697C1.31867 5.73727 0.922359 6.1175 0.922359 6.58347C0.922359 7.04944 1.31867 7.42966 1.80697 7.42966H6.32205L5.67333 14.5682H0.884615C0.396308 14.5682 0 14.9473 0 15.4144C0 15.8815 0.396308 16.2605 0.884615 16.2605H5.52L5.08123 21.0805C5.03877 21.5453 5.39969 21.9549 5.88564 21.9966L5.96349 22C6.41759 22 6.80328 21.6672 6.84338 21.226L7.29513 16.2617H14.7495L14.3131 21.0793C14.2706 21.5453 14.6315 21.9549 15.1175 21.9966L15.1953 22C15.6494 22 16.0351 21.6672 16.0752 21.226L16.5258 16.2617H21.193C21.6802 16.2617 22.0776 15.8815 22.0776 15.4155C22.0776 14.9495 21.6802 14.5693 21.193 14.5693H16.6779L17.3267 7.43079H22.1154C22.6037 7.43079 23 7.05169 23 6.5846C23 6.1175 22.6037 5.7384 22.1154 5.7384ZM14.9028 14.5682H7.44846L8.09718 7.43079H15.5515L14.9028 14.5682Z" fill="white"/>
</svg>
