<svg width="29" height="24" viewBox="0 0 29 24" fill="none" xmlns="http://www.w3.org/2000/svg">
<path d="M8.63133 17.5388C6.58707 17.5027 4.82216 16.3118 3.963 14.5911C4.06763 14.5962 4.17289 14.5988 4.27875 14.5988C4.85301 14.5988 5.41064 14.5229 5.94302 14.3789L5.91091 13.406C3.71 12.9642 2.0007 11.1646 1.69135 8.91958C2.33733 9.16898 3.03468 9.31592 3.7624 9.33973L5.51151 9.39697L4.05664 8.42433C2.62861 7.46965 1.68875 5.83896 1.68875 3.9925C1.68875 3.27599 1.83094 2.59196 2.08825 1.96624C5.03316 5.26425 9.2389 7.41199 13.9536 7.64937L14.6131 7.68257L14.4662 7.03882C14.3768 6.64651 14.3287 6.24129 14.3287 5.825C14.3287 2.8835 16.7125 0.5 19.6513 0.5C21.1827 0.5 22.5651 1.14634 23.537 2.18001L23.7263 2.38132L23.9974 2.32816C24.8767 2.15578 25.7222 1.88862 26.5228 1.53813C26.0793 2.22247 25.4827 2.79892 24.7819 3.21852L25.0982 4.14395C25.7244 4.06891 26.3353 3.94745 26.9281 3.78247C26.4025 4.36024 25.8172 4.88393 25.1833 5.34232L24.9646 5.50043L24.9768 5.76998C24.9877 6.01327 24.9938 6.25824 24.9938 6.5C24.9938 13.98 19.304 22.5675 8.925 22.5675C6.46 22.5675 4.12746 22.0097 2.04074 21.0155C4.63222 20.8795 7.0119 19.9362 8.93092 18.4323L10.0393 17.5637L8.63133 17.5388Z" fill="white" stroke="black"/>
</svg>
